<svg xmlns="http://www.w3.org/2000/svg" xmlns:xlink="http://www.w3.org/1999/xlink" width="16.154" height="42" viewBox="0 0 16.154 42"><defs><linearGradient id="a" y1="0.5" x2="1" y2="0.5" gradientUnits="objectBoundingBox"><stop offset="0" stop-color="#fff18f"/><stop offset="1" stop-color="#fffae3"/></linearGradient><linearGradient id="b" y1="0.5" x2="1" y2="0.5" gradientUnits="objectBoundingBox"><stop offset="0" stop-color="#ab5f0b"/><stop offset="1" stop-color="#753c00"/></linearGradient><linearGradient id="c" y1="0.5" x2="1" y2="0.5" gradientUnits="objectBoundingBox"><stop offset="0" stop-color="#eda85f"/><stop offset="1" stop-color="#a36700"/></linearGradient><linearGradient id="d" y1="0.5" x2="1" y2="0.5" gradientUnits="objectBoundingBox"><stop offset="0" stop-color="#a15900"/><stop offset="1" stop-color="#e39644"/></linearGradient><linearGradient id="f" y1="0.5" x2="1" y2="0.5" gradientUnits="objectBoundingBox"><stop offset="0" stop-color="#6e4500"/><stop offset="1" stop-color="#cf9353"/></linearGradient><linearGradient id="h" y1="0.5" x2="1" y2="0.5" gradientUnits="objectBoundingBox"><stop offset="0" stop-color="#ffbe45"/><stop offset="1" stop-color="#fff0ab"/></linearGradient></defs><g transform="translate(-509 -1392.5)"><g transform="translate(509 1392.5)"><path d="M719.024-449.839l8.077,8.076-8.077,8.077-8.077-8.077,8.077-8.076Zm0,3.019-5.057,5.057,5.057,5.058,5.058-5.058-5.058-5.057Z" transform="translate(-710.947 449.839)" fill="#999" fill-rule="evenodd"/><path d="M712.457-441.762l6.567-6.568v-1.509l-8.077,8.077Z" transform="translate(-710.947 449.839)" fill-rule="evenodd" fill="url(#a)"/><path d="M720.991-446.363l-6.566,6.567h1.509l5.057-5.057v-1.51Z" transform="translate(-712.915 447.872)" fill-rule="evenodd" fill="url(#b)"/><path d="M736.115-441.762l-6.567-6.568v-1.509l8.077,8.077Z" transform="translate(-721.471 449.839)" fill-rule="evenodd" fill="url(#c)"/><path d="M729.548-446.363l6.567,6.567h-1.509l-5.058-5.057v-1.51Z" transform="translate(-721.471 447.872)" fill-rule="evenodd" fill="url(#d)"/><path d="M712.458-431.239l6.567,6.568v1.51l-8.077-8.077Z" transform="translate(-710.947 439.315)" fill-rule="evenodd" fill="url(#c)"/><path d="M720.992-424.671l-6.567-6.567h1.509l5.057,5.057v1.51Z" transform="translate(-712.915 439.315)" fill-rule="evenodd" fill="url(#f)"/><path d="M736.116-431.239l-6.567,6.568v1.51l8.077-8.077Z" transform="translate(-721.472 439.315)" fill-rule="evenodd" fill="url(#b)"/><path d="M729.549-424.671l6.567-6.567h-1.509l-5.057,5.057v1.51Z" transform="translate(-721.472 439.315)" fill-rule="evenodd" fill="url(#h)"/></g><g transform="translate(509 1418.346)"><path d="M719.024-449.839l8.077,8.076-8.077,8.077-8.077-8.077,8.077-8.076Zm0,3.019-5.057,5.057,5.057,5.058,5.058-5.058-5.058-5.057Z" transform="translate(-710.947 449.839)" fill="#999" fill-rule="evenodd"/><path d="M712.457-441.762l6.567-6.568v-1.509l-8.077,8.077Z" transform="translate(-710.947 449.839)" fill-rule="evenodd" fill="url(#a)"/><path d="M720.991-446.363l-6.566,6.567h1.509l5.057-5.057v-1.51Z" transform="translate(-712.915 447.872)" fill-rule="evenodd" fill="url(#b)"/><path d="M736.115-441.762l-6.567-6.568v-1.509l8.077,8.077Z" transform="translate(-721.471 449.839)" fill-rule="evenodd" fill="url(#c)"/><path d="M729.548-446.363l6.567,6.567h-1.509l-5.058-5.057v-1.51Z" transform="translate(-721.471 447.872)" fill-rule="evenodd" fill="url(#d)"/><path d="M712.458-431.239l6.567,6.568v1.51l-8.077-8.077Z" transform="translate(-710.947 439.315)" fill-rule="evenodd" fill="url(#c)"/><path d="M720.992-424.671l-6.567-6.567h1.509l5.057,5.057v1.51Z" transform="translate(-712.915 439.315)" fill-rule="evenodd" fill="url(#f)"/><path d="M736.116-431.239l-6.567,6.568v1.51l8.077-8.077Z" transform="translate(-721.472 439.315)" fill-rule="evenodd" fill="url(#b)"/><path d="M729.549-424.671l6.567-6.567h-1.509l-5.057,5.057v1.51Z" transform="translate(-721.472 439.315)" fill-rule="evenodd" fill="url(#h)"/></g></g></svg>