<svg xmlns="http://www.w3.org/2000/svg" width="46" height="46" viewBox="0 0 46 46"><rect width="46" height="46" rx="10" fill="#282828"/><path d="M-3345.711,1553.975a12.788,12.788,0,0,0-5.873-1.749l-.5,1.424c0-.01-1.6-.249-1.7-.259a16.28,16.28,0,0,0-2.781-.009c-.107.008-1.712.266-1.711.268l-.5-1.424a12.788,12.788,0,0,0-5.873,1.749c-5.373,8.3-3.923,15.12-3.923,15.12,1.8,1.9,6.972,3.549,6.972,3.549l1.374-2.4-2.2-1,.325-.65a15.846,15.846,0,0,0,6.164,1.576,16.122,16.122,0,0,0,5.613-.752c.353-.11.7-.234,1.047-.37.1-.039.991-.482,1.018-.455l.325.65-2.2,1,1.375,2.4s5.173-1.649,6.972-3.549C-3341.787,1569.095-3340.337,1562.272-3345.711,1553.975Zm-13.941,12.046a2.559,2.559,0,0,1-2.443-2.661,2.559,2.559,0,0,1,2.443-2.661,2.559,2.559,0,0,1,2.443,2.661A2.559,2.559,0,0,1-3359.652,1566.021Zm8.943,0a2.559,2.559,0,0,1-2.443-2.661,2.559,2.559,0,0,1,2.443-2.661,2.559,2.559,0,0,1,2.443,2.661A2.559,2.559,0,0,1-3350.709,1566.021Z" transform="translate(3377.751 -1539.226)" fill="#fff"/></svg>