<svg xmlns="http://www.w3.org/2000/svg" width="39.882" height="30" viewBox="0 0 39.882 30"><path d="M-3334.9,1554.8a18.79,18.79,0,0,0-8.629-2.57l-.734,2.093c.005-.015-2.348-.366-2.5-.381a23.923,23.923,0,0,0-4.087-.013c-.157.012-2.516.39-2.514.394l-.734-2.093a18.79,18.79,0,0,0-8.629,2.57c-7.895,12.191-5.765,22.215-5.765,22.215,2.643,2.791,10.245,5.214,10.245,5.214l2.019-3.525-3.232-1.469.478-.955a23.281,23.281,0,0,0,9.057,2.316,23.686,23.686,0,0,0,8.247-1.1q.779-.244,1.539-.544c.146-.058,1.456-.708,1.5-.668l.477.955-3.231,1.469,2.02,3.525s7.6-2.423,10.245-5.214C-3329.132,1577.012-3327,1566.987-3334.9,1554.8Zm-20.485,17.7a3.76,3.76,0,0,1-3.59-3.911,3.761,3.761,0,0,1,3.59-3.911,3.76,3.76,0,0,1,3.589,3.911A3.76,3.76,0,0,1-3355.381,1572.495Zm13.141,0a3.76,3.76,0,0,1-3.59-3.911,3.761,3.761,0,0,1,3.59-3.911,3.761,3.761,0,0,1,3.589,3.911A3.76,3.76,0,0,1-3342.24,1572.495Z" transform="translate(3368.752 -1552.226)" fill="#fff"/></svg>