<svg xmlns="http://www.w3.org/2000/svg" width="46" height="46" viewBox="0 0 46 46"><rect width="46" height="46" rx="10" fill="#282828"/><path d="M-183.73,224.348a11.334,11.334,0,0,0-11.334-11.334A11.334,11.334,0,0,0-206.4,224.348a11.337,11.337,0,0,0,9.563,11.2v-7.92h-2.878v-3.276h2.878v-2.5c0-2.841,1.692-4.41,4.281-4.41a17.432,17.432,0,0,1,2.537.221v2.789h-1.429a1.638,1.638,0,0,0-1.847,1.77v2.126h3.144l-.5,3.276h-2.641v7.92A11.337,11.337,0,0,0-183.73,224.348Z" transform="translate(218.399 -201.014)" fill="#fff"/></svg>