<svg xmlns="http://www.w3.org/2000/svg" width="46" height="46" viewBox="0 0 46 46"><rect width="46" height="46" rx="10" fill="#282828"/><g transform="translate(-602.938 -291.9)"><g transform="translate(614.938 303.899)"><path d="M626.2,305.929c3.008,0,3.364.011,4.552.065a6.232,6.232,0,0,1,2.092.388,3.73,3.73,0,0,1,2.138,2.138,6.231,6.231,0,0,1,.388,2.092c.054,1.188.065,1.544.065,4.552s-.012,3.364-.065,4.552a6.231,6.231,0,0,1-.388,2.092,3.73,3.73,0,0,1-2.138,2.138,6.239,6.239,0,0,1-2.092.388c-1.188.054-1.544.065-4.552.065s-3.364-.011-4.552-.065a6.24,6.24,0,0,1-2.092-.388,3.73,3.73,0,0,1-2.138-2.138,6.233,6.233,0,0,1-.388-2.092c-.054-1.188-.066-1.544-.066-4.552s.011-3.364.066-4.552a6.233,6.233,0,0,1,.388-2.092,3.73,3.73,0,0,1,2.138-2.138,6.232,6.232,0,0,1,2.092-.388c1.188-.054,1.544-.065,4.552-.065m0-2.03c-3.059,0-3.443.013-4.645.068a8.271,8.271,0,0,0-2.734.523,5.76,5.76,0,0,0-3.295,3.295,8.269,8.269,0,0,0-.524,2.734c-.055,1.2-.068,1.585-.068,4.645s.013,3.443.068,4.645a8.269,8.269,0,0,0,.524,2.734,5.76,5.76,0,0,0,3.295,3.295,8.269,8.269,0,0,0,2.734.523c1.2.055,1.585.068,4.645.068s3.443-.013,4.645-.068a8.269,8.269,0,0,0,2.734-.523,5.761,5.761,0,0,0,3.295-3.295,8.264,8.264,0,0,0,.524-2.734c.055-1.2.068-1.585.068-4.645s-.013-3.443-.068-4.645a8.264,8.264,0,0,0-.524-2.734,5.761,5.761,0,0,0-3.295-3.295,8.27,8.27,0,0,0-2.734-.523c-1.2-.055-1.585-.068-4.645-.068Z" transform="translate(-614.938 -303.899)" fill="#fff"/><path d="M641.4,324.575a5.785,5.785,0,1,0,5.785,5.785A5.785,5.785,0,0,0,641.4,324.575Zm0,9.54a3.755,3.755,0,1,1,3.755-3.755A3.755,3.755,0,0,1,641.4,334.115Z" transform="translate(-630.133 -319.094)" fill="#fff"/><circle cx="1.352" cy="1.352" r="1.352" transform="translate(15.927 3.9)" fill="#fff"/></g></g></svg>