<svg width="114" height="114" viewBox="0 0 114 114" fill="none" xmlns="http://www.w3.org/2000/svg">
<path d="M57 7.125C29.4574 7.125 7.125 29.4574 7.125 57C7.125 84.5426 29.4574 106.875 57 106.875C84.5426 106.875 106.875 84.5426 106.875 57C106.875 29.4574 84.5426 7.125 57 7.125ZM57 98.4141C34.1332 98.4141 15.5859 79.8668 15.5859 57C15.5859 34.1332 34.1332 15.5859 57 15.5859C79.8668 15.5859 98.4141 34.1332 98.4141 57C98.4141 79.8668 79.8668 98.4141 57 98.4141Z" fill="white"/>
<path d="M57 15.5859C34.1332 15.5859 15.5859 34.1332 15.5859 57C15.5859 79.8668 34.1332 98.4141 57 98.4141C79.8668 98.4141 98.4141 79.8668 98.4141 57C98.4141 34.1332 79.8668 15.5859 57 15.5859ZM75.2689 57.6902L50.9549 75.3803C50.8216 75.4761 50.6645 75.5332 50.5008 75.5455C50.3371 75.5578 50.1732 75.5248 50.0271 75.45C49.881 75.3752 49.7583 75.2616 49.6725 75.1216C49.5868 74.9817 49.5413 74.8208 49.541 74.6566V39.2988C49.5405 39.1344 49.5855 38.9729 49.6711 38.8325C49.7567 38.692 49.8795 38.578 50.0259 38.5031C50.1723 38.4282 50.3366 38.3952 50.5006 38.408C50.6645 38.4207 50.8218 38.4786 50.9549 38.5752L75.2689 56.2541C75.3838 56.3353 75.4775 56.4429 75.5422 56.5679C75.6069 56.6928 75.6406 56.8315 75.6406 56.9722C75.6406 57.1129 75.6069 57.2515 75.5422 57.3764C75.4775 57.5014 75.3838 57.609 75.2689 57.6902V57.6902Z" fill="white" fill-opacity="0.15"/>
<path d="M75.2689 56.2541L50.9549 38.5752C50.8218 38.4786 50.6645 38.4207 50.5006 38.4079C50.3366 38.3952 50.1723 38.4281 50.0259 38.5031C49.8795 38.578 49.7567 38.692 49.6711 38.8325C49.5855 38.9729 49.5405 39.1343 49.541 39.2988V74.6566C49.5413 74.8208 49.5868 74.9817 49.6725 75.1216C49.7583 75.2616 49.881 75.3752 50.0271 75.45C50.1732 75.5248 50.3371 75.5578 50.5008 75.5455C50.6645 75.5332 50.8216 75.476 50.9549 75.3803L75.2689 57.6902C75.3838 57.609 75.4775 57.5014 75.5422 57.3764C75.6069 57.2515 75.6406 57.1129 75.6406 56.9722C75.6406 56.8315 75.6069 56.6928 75.5422 56.5679C75.4775 56.4429 75.3838 56.3353 75.2689 56.2541V56.2541Z" fill="white"/>
</svg>
