<svg xmlns="http://www.w3.org/2000/svg" width="1920" height="159.711" viewBox="0 0 1920 159.711"><g transform="translate(-248.643 -2608.542) rotate(180)"><path d="M-1967.323-2723.246c.8,0,1.506.5,1.506,1,0,.6,1.1,1,2.51,1s2.51-.4,2.51-1c0-.5-1-1-2.31-1.1-2.109,0-2.109-.1-.2-.9,1.506-.6,1.1-.7-1.808-.7C-1968.528-2724.852-1970.737-2723.246-1967.323-2723.246Z" transform="translate(0.839 0.182)" fill="#120d14"/><path d="M-946.87-2728.246c.8,0,1.506.5,1.506,1,0,.6,1.1,1,2.51,1s2.51-.4,2.51-1c0-.5-1-1-2.31-1.1-2.109,0-2.109-.1-.2-.9,1.506-.6,1.1-.7-1.808-.7C-948.075-2729.852-950.284-2728.246-946.87-2728.246Z" transform="translate(5.128 0.161)" fill="#120d14"/><path d="M-1955.1-2729.939c3.414.1,5.322-.2,5.322-1,0-.6-.8-.9-1.908-.6a2.3,2.3,0,0,1-2.51-.6c-1-1.506-4.72-1.306-7.03.4C-1963.434-2730.039-1963.635-2730.14-1955.1-2729.939Z" transform="translate(0.866 0.147)" fill="#120d14"/><path d="M-1949.324-2734.145a1.221,1.221,0,0,0-.5-1.607c-.5-.3-1,.1-1,.9C-1950.83-2733.04-1950.228-2732.74-1949.324-2734.145Z" transform="translate(0.916 0.136)" fill="#120d14"/><path d="M-934.5-2734.939c3.414.1,5.322-.2,5.322-1,0-.6-.8-.9-1.908-.6a2.3,2.3,0,0,1-2.51-.6c-1-1.506-4.72-1.307-7.029.4C-942.831-2735.039-943.032-2735.14-934.5-2734.939Z" transform="translate(5.156 0.126)" fill="#120d14"/><path d="M-1941.311-2736.244c.3-.5.2-1-.4-1a10.234,10.234,0,0,1-2.812-.7c-1.607-.6-1.607-.5-.4,1C-1943.42-2735.038-1942.215-2734.738-1941.311-2736.244Z" transform="translate(0.937 0.126)" fill="#120d14"/><path d="M-1850.622-2738.23a5.021,5.021,0,0,1,3.314.9c.8,1.506,4.519.9,6.728-1.105,1.1-.9,1.707-2.208,1.306-2.71-.3-.6-.1-1.105.5-1.105s.8-.5.5-1c-.4-.7-1.908-.3-3.917,1a14.5,14.5,0,0,1-5.724,2.008,9,9,0,0,0-3.916,1C-1853.032-2738.431-1852.731-2738.23-1850.622-2738.23Zm4.218-1c.3,0,.8.5,1.1,1,.3.6.1,1-.4,1a1.031,1.031,0,0,1-1.1-.957l0-.047C-1846.806-2738.733-1846.605-2739.234-1846.4-2739.234Z" transform="translate(1.329 0.103)" fill="#120d14"/><path d="M-928.65-2739.145a1.22,1.22,0,0,0-.5-1.607c-.5-.3-1,.1-1,.9C-930.156-2738.041-929.553-2737.74-928.65-2739.145Z" transform="translate(5.205 0.115)" fill="#120d14"/><path d="M-526.978-2740.952c-.6.3-.1.5,1.305.5s1.908-.2,1.205-.5A5.3,5.3,0,0,0-526.978-2740.952Z" transform="translate(6.899 0.114)" fill="#120d14"/><path d="M-920.526-2741.244c.3-.5.2-1-.4-1a10.242,10.242,0,0,1-2.812-.7c-1.607-.6-1.607-.5-.4,1C-922.635-2740.038-921.43-2739.738-920.526-2741.244Z" transform="translate(5.227 0.105)" fill="#120d14"/><path d="M-1836.625-2745.25a2.112,2.112,0,0,1,2.008,1c.2.5.9.6,1.607.1,1-.6.7-1-1.305-1.506-1.506-.4-3.012-.5-3.314-.1C-1837.931-2745.45-1837.429-2745.25-1836.625-2745.25Z" transform="translate(1.391 0.093)" fill="#120d14"/><path d="M-1898.224-2745.349c1.1,0,1.406-.3.6-.6a2.032,2.032,0,0,0-1.908.1C-1899.931-2745.549-1899.328-2745.249-1898.224-2745.349Z" transform="translate(1.13 0.093)" fill="#120d14"/><path d="M-1787.588-2751.241c0-.5-1-1-2.31-1.1-2.109,0-2.109-.1-.2-.9,1.607-.7,1.406-.8-1.205-.7-3.715.2-3.816.3-1.908,2.311C-1791.5-2750.035-1787.588-2749.735-1787.588-2751.241Z" transform="translate(1.573 0.06)" fill="#120d14"/><path d="M-1272.8-2753.346c2.612.1,4.519,0,4.218-.2-1-.9-8.937-1.708-8.937-.9C-1277.519-2753.949-1275.41-2753.447-1272.8-2753.346Z" transform="translate(3.745 0.057)" fill="#120d14"/><path d="M-295.775-2754.242a2.209,2.209,0,0,0,1.607-.9,1.209,1.209,0,0,0-.593-1.605,1.21,1.21,0,0,0-1.315.2C-296.98-2755.647-296.78-2754.242-295.775-2754.242Z" transform="translate(7.868 0.048)" fill="#120d14"/><path d="M-315.375-2757.241a1.691,1.691,0,0,0,1.707-1.676.162.162,0,0,0,0-.031c0-1-.4-1.405-.8-.8a13.759,13.759,0,0,1-1.607,1.808C-316.58-2757.542-316.279-2757.241-315.375-2757.241Z" transform="translate(7.785 0.035)" fill="#120d14"/><path d="M-1787.923-2758.838c2.109.8,2.209.8,2.912-.4a3.523,3.523,0,0,1,2.611-1c1.1,0,1.707-.4,1.406-1-.9-1.405-4.72-1.205-6.829.4C-1789.43-2759.641-1789.43-2759.441-1787.923-2758.838Z" transform="translate(1.596 0.025)" fill="#120d14"/><path d="M-333.868-2759.245c1.506,0,1.506-.2.2-1-2.008-1.3-3.314-1.3-2.51,0A2.794,2.794,0,0,0-333.868-2759.245Z" transform="translate(7.701 0.029)" fill="#120d14"/><path d="M-1618.163-2764.335c5.924.2,7.531.5,6.025,1.2-1.707.8-1.608.9.7.6,2.813-.4,3.917.7,1.506,1.606-.6.2,3.315.5,8.838.6,5.523,0,12.953.3,16.569.6a47.649,47.649,0,0,0,7.531.1,34.659,34.659,0,0,1,5.824-1.105c2.61-.3,4.519-1,4.218-1.606-.4-.5.8-.9,2.51-.9,1.907,0,2.911-.4,2.51-1s-3.716-1-7.332-.9a144.633,144.633,0,0,1-16.769-1.406c-13.859-2.109-30.93-2.31-32.837-.3a9.982,9.982,0,0,1-4.419,1.907C-1624.892-2764.738-1622.583-2764.437-1618.163-2764.335Z" transform="translate(2.29 0)" fill="#120d14"/><path d="M-317.073-2760.349c1.1,0,1.406-.3.6-.6a2.033,2.033,0,0,0-1.908.1C-318.78-2760.549-318.178-2760.249-317.073-2760.349Z" transform="translate(7.776 0.03)" fill="#120d14"/><path d="M-1725.02-2761.73c.5-.2,3.113-.6,5.825-1,2.61-.3,4.519-1,4.217-1.606-.4-.5.8-.9,2.51-.9,1.809,0,2.912-.4,2.51-1-.3-.6-4.217-1-8.636-.9-4.318.1-7.631.5-7.331,1a.553.553,0,0,1-.07.781.551.551,0,0,1-.432.122c-.6,0-1.1.9-1.1,2.009C-1727.53-2761.328-1727.128-2761.026-1725.02-2761.73Z" transform="translate(1.854 0.004)" fill="#120d14"/><path d="M-1763.626-2764.744c3.315,1.407,15.465,3.114,14.461,2.11-.7-.8-5.322-1.808-8.536-2.008a6.693,6.693,0,0,1-3.716-1.506,3.591,3.591,0,0,0-3.413-.6C-1766.336-2766.149-1766.136-2765.848-1763.626-2764.744Z" transform="translate(1.693 0.006)" fill="#120d14"/><path d="M-1766.358-2762.246l.057,0a1.906,1.906,0,0,0,1.607-1c.3-.5-.1-1-.9-1-.9,0-1.607.5-1.607,1A.928.928,0,0,0-1766.358-2762.246Z" transform="translate(1.687 0.017)" fill="#120d14"/><path d="M-750.773-2763.244c.2,0,.4-.4.4-1a1.1,1.1,0,0,0-1.1-1c-.5,0-.7.5-.4,1C-751.576-2763.645-751.074-2763.244-750.773-2763.244Z" transform="translate(5.954 0.013)" fill="#120d14"/><path d="M-1653.45-2763.248c1.607,0,3.013-.2,3.013-.4s-1.406-.6-3.013-.8c-1.707-.3-3.013-.1-3.013.4C-1656.463-2763.648-1655.157-2763.248-1653.45-2763.248Z" transform="translate(2.153 0.015)" fill="#120d14"/><path d="M-739.45-2764.346c2.611.1,4.519,0,4.218-.2-1-.9-8.937-1.708-8.937-.9C-744.17-2764.949-742.061-2764.447-739.45-2764.346Z" transform="translate(5.987 0.011)" fill="#120d14"/><path d="M-1323.273-2765.747c3.013,1.708,3.715,1.808,4.519.5.3-.6-.1-.7-.9-.4-.9.3-1.606.1-1.606-.5s-1-1.105-2.311-1.105C-1325.783-2767.152-1325.783-2767.152-1323.273-2765.747Z" transform="translate(3.545 0.004)" fill="#120d14"/><path d="M-1368.691-2764.851c-.4.3.2.6,1.306.5,1.1,0,1.407-.3.6-.6A2.034,2.034,0,0,0-1368.691-2764.851Z" transform="translate(3.362 0.013)" fill="#120d14"/><path d="M-1479.2-2766.246c.8,0,1.506.5,1.506,1,0,.6,1.1,1,2.51,1s2.511-.4,2.511-1c0-.5-1-1-2.31-1.1-2.109,0-2.109-.1-.2-.9,1.506-.6,1.1-.7-1.807-.7C-1480.4-2767.852-1482.613-2766.246-1479.2-2766.246Z" transform="translate(2.891 0.001)" fill="#120d14"/><path d="M-1487.833-2764.437a10.244,10.244,0,0,0,3.515-.8c1.406-.6,1.506-.9.5-1s-.9-.4.5-1c1.707-.7,1.406-.9-1.406-.9-2.812-.1-3.113.1-2.209,1.305,1,1.1.8,1.506-.6,1.907C-1488.635-2764.637-1488.837-2764.437-1487.833-2764.437Z" transform="translate(2.859 0)" fill="#120d14"/><path d="M-1491.121-2764.245c1.506,0,1.506-.2.2-1-2.008-1.3-3.314-1.3-2.51,0A2.794,2.794,0,0,0-1491.121-2764.245Z" transform="translate(2.837 0.009)" fill="#120d14"/><path d="M-1767.758-2765.245c.3-.5.2-1-.4-1a10.237,10.237,0,0,1-2.812-.7c-1.607-.6-1.607-.5-.4,1C-1769.866-2764.038-1768.662-2763.738-1767.758-2765.245Z" transform="translate(1.666 0.004)" fill="#120d14"/><path d="M-1307.568-2767.249c1.707-.7,1.506-.9-1.2-.9-1.707-.1-3.515.4-3.816.9C-1313.291-2766.043-1310.379-2766.043-1307.568-2767.249Z" transform="translate(3.598 0)" fill="#120d14"/><path d="M-1331.421-2766.45c1.406,0,1.908-.2,1.205-.5a5.3,5.3,0,0,0-2.51,0C-1333.328-2766.65-1332.826-2766.45-1331.421-2766.45Z" transform="translate(3.512 0.005)" fill="#120d14"/><ellipse cx="2.511" cy="1.004" rx="2.511" ry="1.004" transform="translate(-1623.71 -2768.252)" fill="#120d14"/><path d="M-1632.642-2767.249c1.306-.5,1.406-.9.5-.9a10.691,10.691,0,0,0-3.515.9c-1.306.5-1.406.9-.5.9A10.674,10.674,0,0,0-1632.642-2767.249Z" transform="translate(2.235 0)" fill="#120d14"/><path d="M-1639.732-2766.247c.8,0,1.506-.2,1.506-.4s-.7-.6-1.506-1c-.8-.3-1.506-.1-1.506.4C-1641.238-2766.647-1640.535-2766.247-1639.732-2766.247Z" transform="translate(2.217 0.002)" fill="#120d14"/><path d="M-1221.706-2767.45c1.908,0,2.711-.2,1.707-.5a10.371,10.371,0,0,0-3.515,0C-1224.417-2767.65-1223.614-2767.45-1221.706-2767.45Z" transform="translate(3.971 0.001)" fill="#120d14"/><path d="M-1229.148-2767.952a25.5,25.5,0,0,0-5.523,0c-1.506.2-.2.4,2.812.4S-1227.542-2767.752-1229.148-2767.952Z" transform="translate(3.923 0.001)" fill="#120d14"/><path d="M-1733.7-2767.45c1.406,0,1.908-.2,1.2-.5a5.3,5.3,0,0,0-2.511,0C-1735.606-2767.65-1735.1-2767.45-1733.7-2767.45Z" transform="translate(1.822 0.001)" fill="#120d14"/><path d="M-251.194-2754.406c-2.244-.458-2.448-.184-1.938,1.649.408,1.376.2,2.2-.51,2.2a1.292,1.292,0,0,1-1.127-1.376c0-.733-1.123-1.558-2.448-1.925-2.551-.55-4.285-3.666-2.448-4.218.613-.183.408-1-.613-1.833a4.948,4.948,0,0,1-1.633-2.383c0-1.375-8.366-1-11.222.458l-2.551,1.283,2.857-.366a7.82,7.82,0,0,1,2.461.059c-.022.012-.047.017-.069.031-.376.282.136.559,1.111.511.345.5.038.574-.748.133-.814-.458-1.123-.366-.612.275a1.809,1.809,0,0,0,2.143.458c.918-.275,1.53.091,1.53,1a1.421,1.421,0,0,1-1.377,1.465h-.051c-1.633,0-1.633,1.833,0,3.758a4.5,4.5,0,0,1,.816,2.658c-.1.733-.2,2.383-.3,3.666-.1,1.925-.714,2.383-3.162,2.567-1.633.092-3.061-.275-3.061-.733,0-.55-.408-.733-1.02-.458-.51.275-1.02.091-1.02-.367,0-.55-1.224-1-2.652-1-2.244,0-2.551-.184-1.428-1.375,1.02-1.1.918-1.375-.408-1.375-1.02,0-1.53-.366-1.123-.825a.976.976,0,0,0-.341-1.339.652.652,0,0,0-.066-.036c-.51-.366-1.327.275-1.633,1.284a2.63,2.63,0,0,1-.666,1.156,3.537,3.537,0,0,0-2.4-.781c-1.527,0-1.823.151-1.032.984-2.213-.277-7.41-.672-12.532-1-5.713-.366-10.407-.917-10.407-1.283,0-.458-2.958-.642-6.628-.55-5.918.092-6.628.275-7.142,2.2a2.7,2.7,0,0,1-2.142,2.017c-1.224,0-1.53.55-1.02,2.291.408,1.375.2,2.292-.408,2.292s-.816-.367-.51-.917c.3-.458-.3-.917-1.53-.917-1.428,0-1.938-.366-1.428-1.1s0-.642-1.123.184c-1.734,1.283-1.837,1.192-1.224-.184.51-1.375.1-1.65-2.652-1.65-2.652,0-3.571.458-4.387,2.566-.714,1.65-2.448,3.025-5.1,3.941-3.672,1.284-4.081,1.192-5.611-.184-1.633-1.467-1.428-1.65,2.143-3.208,2.551-1.1,3.468-2.017,2.755-2.383-.918-.55-.816-1,.3-1.65,2.958-1.741-3.571-1-8.57.917-5.408,2.2-6.019,3.113-1.633,2.566,3.469-.458,5.2.642,2.347,1.467a33.6,33.6,0,0,1-5.408.642c-1.938.184-4.183.642-4.9,1.192a1.909,1.909,0,0,1-2.448-.184,7.346,7.346,0,0,0-4.183-1.1c-2.448,0-2.857.275-2.448,1.834a2.317,2.317,0,0,1-1.123,2.75c-1.428.733-1.53,1-.3,1.741,1.123.642,1.02.917-.51,1.375-1.123.275-.816.367.816.184,3.775-.367,4.182,1.375.918,4.125l-2.652,2.292-12.242-.825c-6.733-.458-12.447-1.283-12.753-1.65-.408-.458-2.857-.641-5.611-.458-4.081.275-5.305,0-6.427-1.375-1.02-1.375-1.734-1.559-3.265-.824-1.428.642-2.958.55-5.305-.367l-3.367-1.283,6.019-.092c3.367-.091,5.815-.366,5.408-.642-.3-.275-2.958-.55-5.815-.55-4.081.092-6.126.642-8.978,2.567-5.2,3.484-8.264,6.508-7.447,7.331.3.366-.2.366-1.224.091a5.952,5.952,0,0,0-3.775.275c-1.327.641-2.041.55-2.244-.184-.408-1.1-5.408,0-12.038,2.75-6.937,2.842-56.622,1-66.621-2.476a21.509,21.509,0,0,0-5.815-1c-3.571,0-8.366-1.741-9.59-3.483-.613-.917-2.041-1.1-5.2-.642-2.652.275-4.693.184-5.1-.458s2.857-1,9.9-1.1c5.815-.092,8.467-.275,6.019-.458-3.265-.275-5.2-1-6.836-2.75-1.938-2.017-2.754-2.2-6.326-1.65-2.551.367-4.285.184-4.8-.366-.408-.733,2.652-1,9.794-1,5.713,0,10.2-.275,9.9-.55s-2.448-.458-4.8-.551c-2.347,0-4.183-.458-4.183-.917,0-.642,2.142-.733,5.815-.275,7.142.733,5.408.733,14.793.551,8.06-.091,11.427-1.65,3.775-1.741-6.226-.092-10.713-1.1-8.977-2.109,1.123-.551.918-.825-.816-.825a18.13,18.13,0,0,1-5.918-1.925,17.282,17.282,0,0,0-7.447-1.925c-11.937.367-16.63.091-16.017-.733.816-1.1-3.469-1.833-11.324-1.833-11.835,0-29.178-1.834-30.708-3.3-1.938-1.65-2.755-1.65-2.041.091a1.344,1.344,0,0,1-.3,1.834c-.51.275-1.123-.275-1.531-1.284-.714-2.016-4.387-2.842-12.753-2.842-3.162,0-7.957-.275-10.61-.55-3.775-.55-4.489-.825-3.571-1.834.918-1.1.2-1.283-4.591-1.283-4.387,0-5.713.275-5.713,1.375s-1.327,1.283-7.346.826c-8.467-.55-10.407-1.284-3.775-1.375l4.489-.091-3.571-.917c-1.938-.458-11.121-1-20.4-1.283s-21.629-.733-27.546-1.1-12.345-.458-14.283-.091-3.162.733-2.551.825c.51.091,2.041.275,3.265.551,1.327.184,2.347-.092,2.347-.642,0-.458.51-.641,1.02-.366.613.366.816.917.51,1.375s.51,1,1.734,1.192c1.327.275-2.448.367-8.366.092-12.653-.367-13.671-.367-16.12-.275-1.632.091-9.284-.458-19.482-1.283-3.061-.275-5.1,0-6.019.825-.714.733-1.02,1.284-.613,1.284.51,0,.2.55-.408,1.1-1.02.917-1.53.917-2.142-.091-.613-.825-.918-.458-.918,1.192,0,1.283.408,2.383.918,2.383a.969.969,0,0,1,.918,1,.547.547,0,0,1-.468.617.549.549,0,0,1-.349-.067c-.408-.275-.816.642-.918,1.925,0,1.375-.612,2.567-1.224,2.75a2.192,2.192,0,0,0-1.122,2.109c0,2.567-3.468,1.833-3.673-.733-.1-.642-.2-1.834-.3-2.567-.1-1.375-3.162-2.016-3.162-.641,0,.458-1.224,1.283-2.652,1.925-3.06,1.192-10.609-.184-10.609-2.017,0-.641-.51-.366-1.123.551a3.725,3.725,0,0,0-.51,3.025c.3.733.1,1.283-.51,1.283s-.714.366-.408.917c.714,1.1-3.979,2.292-5.612,1.375-.714-.366-.918.184-.408,1.741.408,1.466.2,2.383-.51,2.383a1.289,1.289,0,0,1-1.123-1.375c0-.733-1.123-1.559-2.448-1.925-2.347-.458-4.591-4.033-2.551-4.033.408,0,.613-.642.3-1.375-.408-.917,0-1.375,1.53-1.375,1.224,0,2.142.366,2.142.917,0,.458.817.551,1.734.275,1.326-.458,1.02-.825-1.428-1.559a15.527,15.527,0,0,1-3.979-1.65,4.213,4.213,0,0,0-2.652-.733c-1.02,0-1.837-.366-1.837-.917a1.047,1.047,0,0,0-1.02-.917c-.613,0-1.02.642-1.02,1.466,0,1.1-.3,1.284-1.327.551-.918-.733-2.857-.275-7.243,1.65-5.612,2.567-5.815,2.75-3.571,3.575a6.489,6.489,0,0,0,3.265.367c.51-.275.714.275.51,1.192-.2,1.284.408,1.834,2.244,2.016,3.571.458,4.8,1.65,4.488,4.033-.1,1.192-.3,2.933-.3,3.941-.1,1.466-.918,1.925-3.162,2.109-1.734.092-3.061-.275-3.061-.733,0-.551-.51-.733-1.02-.458-.613.275-1.02.091-1.02-.367,0-.55-1.224-1-2.652-1-2.244,0-2.551-.183-1.428-1.375,1.02-1.1.918-1.375-.51-1.375-1.02,0-1.531-.275-1.224-.642,1.123-.917-1.326-3.025-3.469-3.025-1.123,0-1.837.458-1.734,1a1.276,1.276,0,0,1-1.02,1.466c-.816.275-1.02-.091-.613-1s.1-1.467-1.02-1.467c-1.02,0-1.327-.458-.918-1.466.51-1.283.2-1.468-2.041-1-1.428.367-2.755.275-2.959-.275s-2.142-1-4.387-1.192c-3.367-.183-4.081.092-3.979,1.466.1,1.192-.612,1.559-3.571,1.559a11.982,11.982,0,0,1-5.2-1c-1.123-.733-.51-.825,2.244-.366,2.958.366,3.877.275,3.877-.733,0-1.375-.714-1.558-10.713-3.3-4.591-.733-5.305-.641-6.836,1.1a7.234,7.234,0,0,1-4.591,2.109c-1.53.092-3.265.275-3.672.275-.51.092-.51.551-.1,1.1.408.641,2.041.825,3.979.55a8.622,8.622,0,0,1,5.305.733c1.02.733,1.327,1.375.714,1.375-.714,0-1.531,1-1.837,2.292-.408,1.284-1.428,2.292-2.244,2.292-1.224,0-1.53.551-1.02,2.292.408,1.375.2,2.292-.408,2.292s-.816-.366-.51-.917c.3-.458-.3-.917-1.53-.917-1.428,0-1.938-.367-1.428-1.1s0-.642-1.122.184c-1.734,1.283-1.837,1.192-1.224-.275.714-1.65-.3-1.834-8.672-1.834-2.755,0-3.571-.275-3.162-1.192.3-.733.1-1.283-.3-1.375-.51,0-1.837-.275-2.958-.458a33.469,33.469,0,0,0-4.693-.642,8.616,8.616,0,0,1-4.285-1.467,4.765,4.765,0,0,0-3.469-.642c-1.53.55-1.53.733-.3,1.466,1.327.733,1.224.917-.3.917-2.448,0-2.143,1.283.816,4.218,1.837,1.741,3.162,2.292,5.1,2.016,2.958-.55,4.489.733,1.837,1.467a33.683,33.683,0,0,1-5.408.642,15.282,15.282,0,0,0-4.9,1.1,2.456,2.456,0,0,1-2.958-.366,6.153,6.153,0,0,0-3.775-1c-3.265.551-11.835,3.942-11.835,4.859,0,.366-1.53.917-3.367,1.1-1.734.184.408.458,4.9.55,6.019.184,7.652.458,6.125,1.1-1.734.733-1.633.825.714.55,3.775-.458,4.183,1.283.918,4.033l-2.652,2.291-12.242-.825c-6.733-.458-12.447-1.283-12.753-1.65-.408-.458-2.857-.642-5.612-.458-4.081.275-5.305,0-6.427-1.375-1.02-1.375-1.734-1.559-3.265-.826-1.428.642-2.958.551-5.305-.366l-3.367-1.283,6.019-.091c3.367-.092,5.815-.367,5.408-.642h0a10.28,10.28,0,0,0,2.9-.747c1.406-.6,1.506-.9.5-1s-.9-.4.5-1c1.707-.7,1.406-.9-1.406-.9-2.812-.1-3.113.1-2.209,1.306,1,1.1.8,1.506-.6,1.907-.257.071-.46.135-.616.193-.6-.1-1.424-.177-2.392-.23-.118-.08-.255-.167-.413-.264-2.008-1.3-3.314-1.3-2.51,0a2.7,2.7,0,0,0,.218.207c-4.15.113-5.93.711-10.7,3.75-3.162,2.109-6.733,3.758-7.856,3.758-1.938,0-8.774,2.109-16.936,5.316-7.039,2.75-56.724.917-66.621-2.475a21.494,21.494,0,0,0-5.815-1c-3.571,0-8.366-1.741-9.59-3.484-.611-.917-2.041-1.1-5.2-.642-2.653.275-4.693.184-5.1-.458s2.755-.917,9.794-.917c5.713,0,10.2-.275,9.9-.55s-2.448-.458-4.8-.55c-2.347,0-4.182-.458-4.182-.917,0-.642,2.041-.733,5.305-.366,8.06.917,44.587,1,49.582.184,2.347-.366,4.081-1.1,3.672-1.559-.3-.458.918-.825,2.652-.825,1.938,0,2.958-.367,2.551-.917s-3.775-.917-7.447-.825a153.249,153.249,0,0,1-17.446-1.375c-5.815-.824-10.917-1.192-11.427-.917s-.918.092-.918-.366-1.837-.917-4.182-.917c-6.226-.091-10.713-1.1-8.978-2.109,1.123-.55.918-.825-.816-.825a18.082,18.082,0,0,1-5.918-1.925,17.293,17.293,0,0,0-7.448-1.925c-11.937.367-16.629.092-16.017-.733.816-1.1-3.469-1.834-11.324-1.834-11.834,0-29.178-1.834-30.708-3.3-1.938-1.65-2.754-1.65-2.041.091a1.346,1.346,0,0,1-.3,1.834c-.51.275-1.123-.275-1.531-1.283-.714-2.109-4.387-2.842-14.691-2.933-4.285,0-7.142-.275-6.326-.551,2.652-1-6.528-3.024-13.161-2.933-3.672.091-5.815.275-4.9.55,1.02.184,1.837.825,1.837,1.283,0,.733-14.283.275-15.2-.642-.2-.184,1.632-.367,4.081-.458l4.489-.092-3.571-.917c-1.938-.458-11.121-1-20.4-1.284s-21.629-.733-27.547-1.1-12.344-.458-14.283-.091-3.163.733-2.551.824c.51.091,2.041.275,3.265.55,1.326.184,2.347-.092,2.347-.642,0-.458.51-.642,1.02-.366.613.366.816.917.51,1.375s.51,1,1.734,1.192c1.326.275-2.448.367-8.367.092-12.652-.367-13.671-.367-16.119-.275-1.517.08-8.738-.4-16.6-1.076a1.794,1.794,0,0,0,.141-.753,1.1,1.1,0,0,0-1.1-1c-.5,0-.7.5-.4,1a2.415,2.415,0,0,0,.506.679q-1.264-.11-2.535-.225c-.359-.036-.716-.078-1.069-.125.161-.1.328-.2.526-.329,1.306-.8,1.206-1-.3-1-.9,0-1.708.5-1.708,1,0,.037,0,.061,0,.1a10.408,10.408,0,0,1-3.47-1.016c-1.428-1.283-4.8-1.283-4.8-.091,0,.551-1.428.366-3.571-.367-2.347-.917-6.326-1.283-12.954-1.1-5.1.184-10.61,0-12.038-.366-1.428-.458-8.264-1-15.3-1.192-7.856-.275-12.854-.825-13.055-1.466-.408-1.192-5.305-1.375-5.305-.184,0,1-2.551.733-7.856-.917-1.938-.551-8.06-1-13.671-1-5.509-.091-10.1-.366-10.1-.733s-2.857-.733-6.326-.733c-3.571-.091-6.527-.55-6.733-1.1a.892.892,0,0,0-1.166-.484l-.058.026a1.161,1.161,0,0,1-1.531-.458c-.51-.733.918-.826,4.285-.458,15.813,1.65,38.871,2.842,37.952,1.925a7.329,7.329,0,0,0-2.958-1c-2.993-.549-4-1.227-3.193-1.646.442-.038.68-.114.7-.215a15.614,15.614,0,0,1,3.309-.156c3.264.091,5.509.641,5.815,1.375.3.642.1.917-.408.642a1.4,1.4,0,0,0-1.632.367c-1.021,1.558,3.264,2.842,9.794,2.842,7.55,0,7.448-.642-.2-1.559-6.226-.825-7.652-3.113-2.448-4.033,1.633-.275-4.9-.55-14.589-.642-9.693,0-17.344.275-17.14.55.2.366-1.123.642-3.061.642s-3.469-.184-3.469-.458-8.06-.641-17.854-.733c-12.653-.275-18.364,0-19.381.733a3.394,3.394,0,0,1-3.264.275c-3.469-1.558-14.284-1.375-17.854.275a17.4,17.4,0,0,0-3.877,2.2c-.3.458-1.938.917-3.571,1.192-1.734.184.613.458,5.1.55,6.019.184,7.652.458,6.126,1.1-1.734.733-1.633.825.714.55,3.265-.458,4.591,1.65,2.041,2.933-.918.551-1.326,1-.714,1,.51,0,.1.551-1.02,1.192-1.633,1-4.591,1-14.283.367-6.733-.458-12.447-1.283-12.753-1.65-.408-.458-2.857-.642-5.612-.458-4.081.275-5.305,0-6.427-1.375-1.021-1.375-1.734-1.559-3.265-.826-1.428.642-2.958.551-5.305-.366l-3.367-1.283,6.019-.091c3.367-.091,5.815-.366,5.408-.642-.3-.275-2.857-.55-5.713-.55-4.387.091-6.126.642-11.018,3.759-3.162,2.109-6.733,3.758-7.856,3.758-1.938,0-8.774,2.109-16.936,5.316-7.039,2.749-56.724.917-66.621-2.475a21.547,21.547,0,0,0-5.815-1c-3.162,0-8.263-1.65-9.284-3.113-.407-.458-3.264-.917-6.527-1-3.162-.091-6.126-.641-6.527-1.192-.408-.641-2.652-.917-5.713-.733-4.081.275-5.305,0-6.427-1.375-1.02-1.375-1.734-1.559-3.265-.825-1.224.55-2.958.55-5.2-.184-2.958-.917-3.163-1.1-1.326-1.741s1.837-.733,0-.733c-1.123-.091-4.387,1.559-7.346,3.575s-6.427,3.666-7.754,3.666c-2.142,0-8.774,2.017-17.14,5.316-2.755,1.1-7.55,1.375-19.894,1.375-15.2,0-42.952-2.109-45.4-3.484-1.734-1-12.242-2.016-11.631-1.192.918,1.283-1.326.825-2.551-.551-1.02-1.1-1.938-1.192-5.509-.183-5.713,1.65-9.9,3.391-9.9,4.308,0,.366-1.531.917-3.367,1.1-1.734.184.408.458,4.9.551,6.019.184,7.652.458,6.126,1.1-1.734.733-1.633.825.714.551,3.775-.458,4.081,1.1.918,4.125-1.632,1.65-3.265,2.383-4.693,2.109-1.123-.275-6.628-.642-12.242-.917s-10.3-.917-10.508-1.375c-.51-1.375-4.386-1.1-6.427.55-1.02.825-1.53,2.016-1.224,2.75.612,1.559-1.837,1.741-3.571.184-1.428-1.283-1.632-2.933-.3-2.109a1.318,1.318,0,0,0,1.632-.458c.3-.458-.1-.917-1.02-.917s-1.428-.367-1.122-.825-.1-1.1-1.02-1.375c-2.448-.825-2.754-.733-2.143,1.283.3,1,.1,1.834-.51,1.834-.51,0-.612.366-.3.917.714,1.1-3.979,2.292-5.612,1.375-.714-.366-.918.184-.408,1.742.408,1.466.2,2.383-.51,2.383a1.291,1.291,0,0,1-1.123-1.375c0-.733-1.122-1.559-2.551-1.925-2.653-.55-3.979-.091-4.183,1.558-.1.458-.2,1.192-.3,1.742,0,.458-1.53,1.467-3.162,2.291-1.734.826-3.061,1.925-3.061,2.567s-1.428,1.283-3.061,1.375c-1.734.091-3.061-.275-3.061-.733,0-.551-.51-.733-1.02-.458-.612.275-1.021.091-1.021-.366,0-.551-1.224-1-2.652-1-2.244,0-2.551-.184-1.428-1.375,1.021-1.1.918-1.375-.408-1.375-1.02,0-1.53-.366-1.123-.825a1.084,1.084,0,0,0-.539-1.436c-.023-.011-.048-.021-.072-.03-.613-.366-1.326.184-1.633,1.283-.51,1.834-2.347,2.75-2.347,1.283,0-.458-2.244-.55-5.1-.458-5.2.366-6.125,1.925-1.224,2.109,1.531,0,2.143.275,1.428.551-.613.184-1.02.733-.714,1.1.51.826-5.1.642-8.978-.366-2.143-.55-2.551-.917-1.53-1.467.816-.458-1.428-.825-5.815-.917-3.979-.091-9.284-.275-12.039-.458-2.652-.184-4.8.091-4.8.55,0,.55-.714.917-1.633.917-1.224,0-1.531.55-1.02,2.292.407,1.375.2,2.292-.408,2.292s-.816-.367-.51-.917c.3-.458-.3-.917-1.53-.917-1.428,0-1.938-.366-1.428-1.192.51-.642,0-.551-1.123.275-1.734,1.283-1.837,1.192-1.224-.184.714-1.741-.3-1.925-8.672-1.925-2.755,0-3.571-.275-3.162-1.192.3-.733.1-1.283-.3-1.375-.51,0-1.837-.275-2.958-.458a33.591,33.591,0,0,0-4.693-.641,8.6,8.6,0,0,1-4.285-1.466,4.771,4.771,0,0,0-3.469-.642c-1.53.551-1.53.733-.3,1.466,1.326.733,1.224.917-.3.917-2.448,0-2.143,1.283.815,4.218,1.837,1.741,3.164,2.292,5.1,2.016,2.958-.551,4.489.733,1.837,1.467a33.494,33.494,0,0,1-5.408.642,15.341,15.341,0,0,0-4.9,1.1,2.456,2.456,0,0,1-2.958-.366,6.148,6.148,0,0,0-3.775-1c-3.265.55-11.834,3.941-11.834,4.858,0,.367-1.53.917-3.367,1.1-1.734.184.408.458,4.9.55,6.019.184,7.652.458,6.125,1.1-1.734.733-1.633.825.714.55,3.775-.458,4.183,1.284.918,4.033l-2.653,2.292-12.242-.825c-6.733-.458-12.447-1.284-12.754-1.65-.407-.458-2.857-.642-5.611-.458-4.081.275-5.305,0-6.427-1.375-1.021-1.375-1.734-1.559-3.265-.825-1.428.641-2.958.551-5.305-.366l-3.366-1.283,6.019-.091c3.366-.091,5.815-.367,5.406-.642a2.341,2.341,0,0,0-.849-.239c.108-.042.217-.076.323-.122,1.406-.6,1.506-.9.5-1s-.9-.4.5-1c1.707-.7,1.406-.9-1.406-.9-2.812-.1-3.113.1-2.209,1.305.7.764.8,1.19.339,1.513-.868-.059-1.87-.1-2.915-.1-.557.012-1.072.031-1.554.062-1.881-1.163-3.07-1.129-2.3.127.042.052.1.087.142.135-2.181.421-4.043,1.355-7.309,3.434-3.162,2.109-6.733,3.758-7.856,3.758-1.938,0-8.774,2.109-16.936,5.316-7.04,2.75-56.725.917-66.621-2.475a21.533,21.533,0,0,0-5.815-1c-3.571,0-8.366-1.741-9.59-3.484-.612-.917-2.041-1.1-5.2-.642-2.652.275-4.692.184-5.1-.458s2.755-.917,9.794-.917c5.713,0,10.2-.275,9.9-.551s-2.448-.458-4.8-.55c-2.346,0-4.182-.458-4.182-.917,0-.642,2.041-.733,5.305-.366,8.06.917,44.586,1,49.583.184,2.347-.367,4.081-1.1,3.672-1.559-.3-.458.918-.825,2.652-.825,1.939,0,2.958-.366,2.551-.917s-3.775-.917-7.448-.825a152.821,152.821,0,0,1-17.446-1.375c-5.816-.826-10.917-1.192-11.427-.917s-.918.091-.918-.367-1.837-.917-4.183-.917c-6.226-.091-10.713-1.1-8.978-2.109,1.123-.55.918-.825-.816-.825a18.087,18.087,0,0,1-5.917-1.925,17.318,17.318,0,0,0-7.448-1.925c-11.937.366-16.629.091-16.017-.733.817-1.1-3.468-1.834-11.324-1.834-11.835,0-29.178-1.834-30.708-3.3-1.938-1.65-2.755-1.65-2.041.092a1.344,1.344,0,0,1-.3,1.833c-.51.275-1.122-.275-1.53-1.283-.67-1.892-4.036-2.735-11.784-2.832v134.6h1920v-145.494Zm-277.7,9.716,0,0a2.269,2.269,0,0,1,1.938-.092c.817.275.51.551-.612.551C-528.694-2744.14-529.307-2744.416-528.9-2744.691Zm-279.847-4.03a.919.919,0,0,1-1.014-.812.893.893,0,0,1-.006-.1.973.973,0,0,1,1.02-.917,1.046,1.046,0,0,1,1.02.917A.975.975,0,0,1-808.745-2748.721Zm-255.771,14.113h0a2.268,2.268,0,0,1,1.938-.092c.816.275.51.55-.613.55C-1064.312-2734.057-1064.924-2734.332-1064.516-2734.607Zm-1021.243,4.583h0a2.268,2.268,0,0,1,1.938-.092c.816.275.51.55-.612.55C-2085.555-2729.474-2086.167-2729.749-2085.759-2730.024Zm-38.562,8.072a5.161,5.161,0,0,1-2.549-.736c.009-.184,1.126-.365,2.549-.365s2.551.366,2.551.826C-2121.771-2721.861-2122.894-2721.677-2124.322-2721.953Zm18.365-10.272a1.975,1.975,0,0,1-1.633.917.888.888,0,0,1-.92-.855c0-.02,0-.04,0-.06h0c0-.458.714-.917,1.633-.917C-2106.059-2733.142-2105.652-2732.684-2105.957-2732.225Zm118.141,19.526a6.024,6.024,0,0,0-1.224,3.391c-.2,1.467-8.672,4.492-9.386,3.391a9.249,9.249,0,0,0-1.838-1.466l0,.005c-.612-.367.611-1.466,3.162-2.658,2.448-1.1,3.775-2.017,3.061-2.017a1.186,1.186,0,0,1-1.224-1.1c0-.55.816-.366,1.938.55,1.734,1.375,2.041,1.375,3.469.091C-1987.918-2714.165-1986.693-2714.349-1987.816-2712.7Zm90.594-12.192c-1.126,0-2.347-.366-2.652-.917-.408-.551.511-.917,1.939-.917s2.652.458,2.652.917C-1895.283-2725.257-1896.2-2724.891-1897.222-2724.891Zm27.037,2.663c-1.123.086-1.735-.188-1.328-.463l0,0a2.269,2.269,0,0,1,1.938-.091C-1868.756-2722.5-1869.062-2722.228-1870.185-2722.228Zm48.972,16.591c-.207,0-.614-.646-1.021-1.38-.3-.731-.1-1.37.409-1.37.613,0,1.02.642,1.02,1.375S-1821.006-2705.636-1821.213-2705.636Zm1.529,2.75a1.01,1.01,0,0,1-1.12-.886l0-.036,0,.006c0-.458.2-.917.408-.917.3,0,.816.458,1.122.917C-1818.975-2703.252-1819.175-2702.886-1819.684-2702.886Zm14.8-32.088c-.207,0-.617-.642-1.025-1.375h0c-.3-.733-.1-1.375.408-1.375.613,0,1.02.642,1.02,1.375S-1804.68-2734.974-1804.886-2734.974Zm1.527,2.75a1.011,1.011,0,0,1-1.121-.887l0-.029h0c0-.458.2-.917.408-.917.3,0,.816.458,1.123.917C-1802.65-2732.591-1802.851-2732.225-1803.359-2732.225Zm56.42-10.906a1.707,1.707,0,0,1-2.362.5,1.716,1.716,0,0,1-.6-.677l0,0c-1.02-1.283-.1-1.925,1.938-1.192C-1747.042-2744.231-1746.633-2743.589-1746.939-2743.131Zm86.2-4.041a9.2,9.2,0,0,0-1.836-1.461c-.612-.367.612-1.466,3.162-2.658,2.448-1.1,3.775-2.017,3.061-2.017a1.187,1.187,0,0,1-1.224-1.1c0-.55.817-.366,1.938.551,1.735,1.375,2.041,1.375,3.469.091,1.939-1.65,3.163-1.834,2.041-.184a6.018,6.018,0,0,0-1.224,3.391C-1651.549-2749.1-1660.02-2746.071-1660.734-2747.172Zm9.9,14.948c-.207,0-.615-.643-1.022-1.375h0c-.3-.733-.1-1.375.407-1.375.613,0,1.02.642,1.02,1.375S-1650.629-2732.225-1650.836-2732.225Zm1.531,2.75a1.01,1.01,0,0,1-1.121-.886l0-.031h0c0-.458.2-.917.408-.917.3,0,.816.458,1.123.917C-1648.6-2729.841-1648.8-2729.474-1649.305-2729.474Zm20.607-25.026a5.7,5.7,0,0,1-3.368-1.374h0c-1.121-1.1-.917-1.192,1.124-.642C-1627.678-2755.6-1626.147-2754.316-1628.7-2754.5Zm127.531,2.382a6.035,6.035,0,0,0-1.224,3.391c-.2,1.468-8.671,4.492-9.386,3.391a9.239,9.239,0,0,0-1.84-1.463l0,0c-.611-.367.613-1.466,3.162-2.658,2.448-1.1,3.775-2.016,3.061-2.016a1.187,1.187,0,0,1-1.224-1.1c0-.551.817-.367,1.939.551,1.735,1.375,2.041,1.375,3.469.091C-1501.269-2753.584-1500.045-2753.768-1501.167-2752.118Zm17.643,5.226c-.207,0-.609-.637-1.017-1.374h0c-.3-.733-.1-1.375.408-1.375.613,0,1.02.642,1.02,1.375S-1483.318-2746.892-1483.524-2746.892Zm1.537,2.754a1.01,1.01,0,0,1-1.119-.888l0-.03c0-.458.2-.916.407-.916.3,0,.816.458,1.123.917C-1481.278-2744.505-1481.479-2744.138-1481.987-2744.138Zm35.7.089c-1.013-.549.108-.731,3.064-.365a25.85,25.85,0,0,1,4.9.825C-1437.3-2742.766-1444.957-2743.311-1446.283-2744.049Zm35.708-20.253c-1.123-.005-2.347-.372-2.652-.921v0c-.408-.55.511-.917,1.939-.917s2.652.458,2.652.917C-1408.636-2764.668-1409.554-2764.3-1410.575-2764.3Zm26.424,29.236h0c-1.122-.642-.1-.733,3.571-.275a38.532,38.532,0,0,1,5.509.917C-1374.053-2733.6-1382.825-2734.148-1384.152-2735.065Zm11.837,1.924a1.677,1.677,0,0,1-1.124-.916h0c-.3-.458-.1-.917.408-.917a1.074,1.074,0,0,1,1.123.917C-1371.907-2733.508-1372.108-2733.142-1372.315-2733.142Zm25.406-2.665c-.3.367-1.837.55-3.367.367s-6.228-.634-10.41-.909h0c-17.14-1.192-20-1.558-22.854-2.383a23.643,23.643,0,0,0-5.305-.825,14.569,14.569,0,0,1-5-1.1c-4.081-1.65-.714-2.383,7.039-1.559,3.367.367,9.386.917,13.365,1.192C-1357.622-2739.924-1345.787-2737.545-1346.909-2735.807Zm12.34-9.251c-.207,0-.611-.642-1.023-1.375h0c-.3-.733-.1-1.375.408-1.375.613,0,1.02.641,1.02,1.375S-1334.362-2745.057-1334.569-2745.057Zm1.533,2.752a1.01,1.01,0,0,1-1.121-.886l0-.032h0c0-.458.2-.917.408-.917.3,0,.816.458,1.122.917C-1332.327-2742.672-1332.528-2742.306-1333.036-2742.306Zm6.425-4.035h0c-1.326-.367-2.448-1-2.448-1.559,0-.642,2.041-.733,5.816-.458,8.264.825,12.552,1.559,12.552,2.292C-1310.7-2745.42-1323.14-2745.607-1326.611-2746.341Zm22.65-7.97c-1.124.087-1.735-.188-1.328-.462v0a2.27,2.27,0,0,1,1.938-.092C-1302.533-2754.586-1302.839-2754.311-1303.961-2754.311Zm27.953,4.674h0c0-.458.715-.917,1.632-.917.816,0,1.224.458.918.917a1.975,1.975,0,0,1-1.633.917.89.89,0,0,1-.917-.86Zm4.084,7.149a69.182,69.182,0,0,1-10.715-.735h0c-4.387-1,7.652-1,13.773-.091C-1264.68-2742.581-1264.986-2742.489-1271.924-2742.489Zm39.378-7.148c-.917,0-1.63-.37-1.632-.919a.946.946,0,0,1,.917-.915,2.228,2.228,0,0,1,1.633.917C-1231.327-2750-1231.729-2749.636-1232.546-2749.636Zm8.162,20.988c-1.123.092-1.735-.184-1.327-.459h0a2.27,2.27,0,0,1,1.938-.091C-1222.955-2728.924-1223.261-2728.649-1224.384-2728.649Zm-.609-23.005a29.862,29.862,0,0,1-6.125-.736v0c-2.448-.733-2.448-.733.509-.733a35.864,35.864,0,0,1,6.126.733l3.061.733Zm9.688.184a1.8,1.8,0,0,1-1.02.917,1.808,1.808,0,0,1-1.02-.92v0c-.3-.458.1-.917,1.02-.917S-1215-2751.929-1215.3-2751.47Zm7.139,24.655c-3.772.09-5.71-.184-5-.831v.005c.51-.458,2.958-.55,6.019-.091l5.1.825Zm7.144-23.463a41.417,41.417,0,0,1-6.528-.829v0c-.918-.733,8.672-.184,10.61.55C-1195.615-2750-1197.142-2749.912-1201.022-2750.278Zm5.716,21.721a1.011,1.011,0,0,1-1.12-.887l0-.03h0c0-.458.2-.917.408-.917.3,0,.816.458,1.123.917C-1194.6-2728.924-1194.8-2728.557-1195.306-2728.557Zm92.227,2.017a5.159,5.159,0,0,1-2.551-.734c0-.184,1.123-.366,2.551-.366s2.551.366,2.551.826C-1100.529-2726.448-1101.651-2726.265-1103.079-2726.54Zm18.368-10.263a1.975,1.975,0,0,1-1.633.917.888.888,0,0,1-.921-.854c0-.022,0-.044,0-.066l.005,0c0-.458.714-.917,1.632-.917C-1084.813-2737.719-1084.405-2737.261-1084.711-2736.8Zm118.137,19.514a6.02,6.02,0,0,0-1.224,3.392c-.2,1.466-8.672,4.492-9.386,3.391a9.22,9.22,0,0,0-1.836-1.461c-.613-.366.612-1.466,3.162-2.658,2.448-1.1,3.775-2.016,3.061-2.016a1.186,1.186,0,0,1-1.224-1.1c0-.55.816-.366,1.938.55,1.734,1.375,2.04,1.375,3.469.092C-966.677-2718.754-965.453-2718.938-966.575-2717.288Zm90.6-12.186c-1.124,0-2.348-.367-2.654-.917h0c-.408-.551.51-.917,1.938-.917s2.653.458,2.653.917C-874.039-2729.841-874.956-2729.474-875.977-2729.474Zm23.969-18.425c-1.118.093-1.73-.183-1.322-.458h0a2.27,2.27,0,0,1,1.938-.092C-850.578-2748.174-850.885-2747.9-852.007-2747.9Zm3.065,21.084c-1.118.09-1.734-.184-1.327-.459h0a2.269,2.269,0,0,1,1.938-.091C-847.514-2727.09-847.82-2726.815-848.943-2726.815Zm11.531-18.241a1.074,1.074,0,0,1,1.123.917c0,.049-.009.087-.012.134-.466,0-.931.028-1.4.067a1.582,1.582,0,0,1-.125-.2l0,0C-838.12-2744.6-837.919-2745.055-837.411-2745.055Zm.984,1.6c-.074.147-.17.235-.269.235a1.683,1.683,0,0,1-.537-.247Q-836.864-2743.458-836.427-2743.457Zm9.527,6.37c-.613.275-1.02.733-.714,1.192.607.919-6.433.463-9.693-.638l-2.551-.917,2.347-.642C-835.164-2738.824-824.657-2737.724-826.9-2737.087Zm5.915-1.557c-.014,0-.026,0-.04,0a3.264,3.264,0,0,0-.758-.318.874.874,0,0,1-.219-.452l-.006-.049,0,0a1.734,1.734,0,0,1,1.02-1.467c.51-.275,1.02.091,1.02.825C-819.965-2739.285-820.475-2738.644-820.986-2738.644Zm16.827-8.249c-.914,0-1.221-.548-.914-1.374h0c.408-.733,1.02-1.375,1.531-1.375s.918.642.918,1.375A1.5,1.5,0,0,1-804.158-2746.892Zm4.187,36.667c-.207,0-.613-.641-1.02-1.374h0c-.3-.733-.1-1.375.408-1.375.613,0,1.02.642,1.02,1.375S-799.765-2710.225-799.972-2710.225Zm1.53,2.75a1.011,1.011,0,0,1-1.12-.887l0-.029c0-.458.2-.917.408-.917.3,0,.817.458,1.123.917C-797.732-2707.842-797.933-2707.475-798.441-2707.475Zm24.182-38.588c-.105,2.931-1.533,3.664-3.676,1.74h0a3.344,3.344,0,0,1-1.224-2.016c0-.458.3-.55.714-.275.3.366,1.428,0,2.448-.825C-774.259-2748.813-774.157-2748.722-774.259-2746.063Zm25.2-13.659c-2.245-.458-.918-.733,4.591-.733a70,70,0,0,1,10.712.733c2.244.458.918.733-4.591.733a69.137,69.137,0,0,1-10.712-.734Zm12.752,7.153a69.139,69.139,0,0,1-10.712-.737v0c-4.387-1,7.652-1,13.773-.091C-729.067-2752.662-729.372-2752.57-736.31-2752.57Zm10.607,4.853a1.707,1.707,0,0,1-2.364.487,1.71,1.71,0,0,1-.591-.668l0,0c-1.02-1.283-.1-1.925,1.938-1.192C-725.805-2748.817-725.4-2748.175-725.7-2747.717Zm28.774-12c-.917-.005-1.63-.371-1.632-.919a.947.947,0,0,1,.917-.915,2.222,2.222,0,0,1,1.633.917C-695.709-2760.085-696.111-2759.719-696.928-2759.719Zm4.794,14.112h0a2.268,2.268,0,0,1,1.938-.092c.816.275.51.55-.613.55C-691.93-2745.057-692.542-2745.333-692.134-2745.607Zm3.369,6.872c-1.125.094-1.736-.181-1.326-.459a2.268,2.268,0,0,1,1.938-.091C-687.336-2739.01-687.643-2738.735-688.765-2738.735Zm-.61-23a29.81,29.81,0,0,1-6.125-.737v0c-2.448-.733-2.448-.733.51-.733a36.007,36.007,0,0,1,6.126.733l3.061.733Zm8.667,1.1a1.811,1.811,0,0,1-1.02-.921v0c-.3-.458.1-.917,1.02-.917s1.326.458,1.02.917A1.8,1.8,0,0,1-680.707-2760.635Zm1.122,16.5,0,0c.51-.458,2.958-.55,6.019-.091l5.1.825-6.126.091C-678.361-2743.224-680.3-2743.5-679.586-2744.14Zm7.04,7.246c-3.776.087-5.714-.191-5-.83l.005,0c.51-.458,2.958-.55,6.019-.092l5.1.826Zm.612-24.292c-.816-.733,8.57-.184,11.121.55,1.633.55.1.642-4.081.275A46.485,46.485,0,0,1-671.934-2761.186Zm10.2,16.128a1.011,1.011,0,0,1-1.12-.888l0-.029c0-.458.2-.917.408-.917.3,0,.816.458,1.123.917C-661.022-2745.424-661.223-2745.057-661.731-2745.057Zm2.046,6.421a1.011,1.011,0,0,1-1.124-.883l0-.038.005,0c0-.458.2-.917.408-.917.3,0,.816.458,1.123.917C-658.976-2739-659.177-2738.636-659.685-2738.636Zm87.635-5.137c0-.184,1.123-.367,2.551-.367s2.551.367,2.551.826c0,.366-1.123.55-2.551.275a5.161,5.161,0,0,1-2.554-.735Zm4.593,7.154a5.156,5.156,0,0,1-2.55-.735c.005-.184,1.125-.365,2.55-.365s2.551.366,2.551.825C-564.907-2736.528-566.029-2736.344-567.458-2736.619Zm15.808-10.214v-.057h0c0-.458.714-.917,1.634-.917.815,0,1.223.458.918.917a1.977,1.977,0,0,1-1.634.917A.89.89,0,0,1-551.649-2746.833Zm120.691,19.467a6.015,6.015,0,0,0-1.224,3.391c0,.551-2.041,1.741-4.387,2.658-3.877,1.466-4.387,1.466-5.918.184-1.426-1.375-1.325-1.557,1.226-3.024h0a20.023,20.023,0,0,1,5.611-2.109c1.53-.184,2.958-.825,3.162-1.375a1.677,1.677,0,0,1,1.327-.917C-430.546-2728.558-430.445-2728.008-430.958-2727.366Zm90.6-12.19c-1.125,0-2.349-.368-2.655-.918h0c-.408-.551.51-.917,1.938-.917s2.652.458,2.652.917C-338.421-2739.923-339.339-2739.556-340.359-2739.556Zm23.667-4.218,0,0a2.268,2.268,0,0,1,1.938-.092c.816.275.51.55-.612.55C-316.488-2743.224-317.1-2743.5-316.692-2743.774Zm3.371,6.88c-1.127.087-1.739-.191-1.331-.463l.005,0a2.271,2.271,0,0,1,1.938-.091C-311.892-2737.169-312.2-2736.894-313.321-2736.894Zm22.032-10.276c-.613.275-1.02.733-.714,1.192.612.921-6.428.458-9.693-.638l-2.551-.917,2.347-.642C-299.552-2748.907-289.045-2747.808-291.289-2747.17Zm24.894,20.446c-.207,0-.613-.641-1.021-1.375h0c-.3-.733-.1-1.375.408-1.375.613,0,1.02.642,1.02,1.375S-266.188-2726.725-266.394-2726.725Zm.411,1.863,0-.029c0-.458.2-.917.408-.917.3,0,.816.458,1.123.917.3.55.1.917-.408.917A1.011,1.011,0,0,1-265.984-2724.862Zm1.631,4.554c-.207,0-.614-.642-1.022-1.375h0c-.3-.733-.1-1.375.408-1.375.613,0,1.02.642,1.02,1.375S-264.146-2720.308-264.353-2720.308Zm1.531,2.75a1.011,1.011,0,0,1-1.121-.886l0-.03h0c0-.458.2-.917.408-.917.3,0,.816.458,1.123.917C-262.112-2717.925-262.313-2717.558-262.821-2717.558Zm-.513-41.339c-1.122.09-1.734-.18-1.326-.459a2.268,2.268,0,0,1,1.938-.091C-261.906-2759.172-262.212-2758.9-263.335-2758.9Z" transform="translate(0 0.005)" fill="#120d14"/></g></svg>