<svg xmlns="http://www.w3.org/2000/svg" width="46" height="46" viewBox="0 0 46 46"><rect width="46" height="46" rx="10" fill="#282828"/><g transform="translate(-995.216 -230.322)"><g transform="translate(1007.216 243.321)"><path d="M1014.3,262.865c8.5,0,13.152-7.518,13.152-14.038q0-.32-.013-.638a9.784,9.784,0,0,0,2.306-2.555,8.766,8.766,0,0,1-2.655.777,4.909,4.909,0,0,0,2.033-2.729,8.919,8.919,0,0,1-2.935,1.2,4.488,4.488,0,0,0-3.374-1.559,4.787,4.787,0,0,0-4.623,4.933,5.247,5.247,0,0,0,.12,1.125,12.869,12.869,0,0,1-9.528-5.155,5.171,5.171,0,0,0-.626,2.48,5.025,5.025,0,0,0,2.057,4.107,4.373,4.373,0,0,1-2.094-.617c0,.021,0,.041,0,.063a4.867,4.867,0,0,0,3.708,4.837,4.336,4.336,0,0,1-2.088.084,4.677,4.677,0,0,0,4.318,3.427,8.911,8.911,0,0,1-5.741,2.112,8.8,8.8,0,0,1-1.1-.068,12.494,12.494,0,0,0,7.086,2.216" transform="translate(-1007.216 -243.321)" fill="#fff"/></g></g></svg>