<svg xmlns="http://www.w3.org/2000/svg" width="36.914" height="30" viewBox="0 0 36.914 30"><path d="M11.648-942.511c13.93,0,21.548-11.541,21.548-21.548,0-.328-.007-.654-.022-.979a15.407,15.407,0,0,0,3.778-3.921,15.118,15.118,0,0,1-4.349,1.192,7.6,7.6,0,0,0,3.33-4.189,15.179,15.179,0,0,1-4.809,1.838,7.566,7.566,0,0,0-5.528-2.393,7.575,7.575,0,0,0-7.575,7.573,7.558,7.558,0,0,0,.2,1.727,21.5,21.5,0,0,1-15.61-7.913,7.546,7.546,0,0,0-1.026,3.806,7.568,7.568,0,0,0,3.37,6.3,7.518,7.518,0,0,1-3.43-.947c0,.032,0,.063,0,.1A7.577,7.577,0,0,0,7.6-954.44a7.6,7.6,0,0,1-2,.266,7.559,7.559,0,0,1-1.424-.137,7.582,7.582,0,0,0,7.075,5.26,15.2,15.2,0,0,1-9.406,3.242,15.412,15.412,0,0,1-1.807-.1,21.441,21.441,0,0,0,11.609,3.4" transform="translate(-0.039 972.511)" fill="#fff"/></svg>