<svg xmlns="http://www.w3.org/2000/svg" width="46" height="46" viewBox="0 0 46 46"><rect width="46" height="46" rx="10" fill="#282828"/><path d="M-114.439,455.757a3.4,3.4,0,0,0-2.4-2.4c-2.117-.567-10.6-.567-10.6-.567s-8.488,0-10.6.567a3.4,3.4,0,0,0-2.4,2.4,35.336,35.336,0,0,0-.567,6.533,35.333,35.333,0,0,0,.567,6.533,3.4,3.4,0,0,0,2.4,2.4c2.117.567,10.6.567,10.6.567s8.488,0,10.6-.567a3.4,3.4,0,0,0,2.4-2.4,35.314,35.314,0,0,0,.567-6.533A35.317,35.317,0,0,0-114.439,455.757Zm-15.718,10.6v-8.143l7.051,4.072Z" transform="translate(150.015 -438.791)" fill="#fff"/></svg>