
<svg version="1.0" xmlns="http://www.w3.org/2000/svg"
 width="200.000000pt" height="200.000000pt" viewBox="0 0 200.000000 200.000000"
 preserveAspectRatio="xMidYMid meet">

<g transform="translate(0.000000,200.000000) scale(0.100000,-0.100000)"
fill="#fff" stroke="none">
<path d="M714 1870 c-39 -25 -82 -104 -90 -164 -8 -56 9 -62 30 -12 20 48 58
70 119 70 43 0 53 -4 78 -31 37 -43 40 -74 37 -373 l-3 -255 -220 -3 c-121 -2
-254 0 -295 3 -66 6 -78 11 -107 40 -27 27 -33 41 -33 77 0 53 27 100 69 118
46 18 39 33 -13 28 -61 -7 -131 -43 -158 -81 -22 -31 -23 -41 -26 -272 -2
-152 1 -253 7 -277 6 -20 27 -50 46 -67 47 -41 175 -79 175 -51 0 5 -16 17
-35 26 -48 23 -68 64 -62 128 5 56 35 89 90 100 16 3 150 6 298 6 l269 0 0
-272 c0 -151 -5 -289 -10 -309 -14 -50 -41 -71 -100 -77 -59 -5 -91 11 -122
64 -23 40 -38 44 -38 10 0 -69 61 -169 116 -192 51 -21 493 -20 539 2 50 23
91 92 105 171 8 52 -11 59 -30 12 -30 -71 -134 -92 -192 -40 l-33 29 -3 301
-3 301 268 0 c147 0 284 -5 304 -10 56 -16 83 -51 83 -109 0 -59 -22 -96 -69
-118 -49 -23 -44 -37 11 -29 61 8 140 52 164 91 19 30 20 51 20 287 0 296 -1
301 -99 351 -54 27 -131 37 -131 17 0 -5 6 -10 14 -10 8 0 28 -12 45 -26 65
-54 60 -158 -9 -198 -33 -20 -54 -21 -317 -24 l-283 -4 0 294 c0 273 1 295 20
325 24 41 84 60 135 43 37 -12 85 -62 85 -87 0 -8 6 -13 13 -10 36 12 -25 166
-82 204 -33 22 -40 23 -290 23 -238 0 -258 -2 -287 -20z"/>
<path d="M574 1476 c-43 -19 -64 -53 -64 -104 0 -37 6 -50 34 -78 28 -28 42
-34 76 -34 57 0 110 50 110 104 0 52 -25 95 -65 112 -42 17 -51 17 -91 0z"/>
<path d="M1340 1473 c-19 -10 -44 -34 -54 -54 -18 -32 -18 -41 -7 -78 21 -73
101 -102 167 -62 116 71 16 255 -106 194z"/>
<path d="M539 691 c-24 -24 -29 -38 -29 -76 0 -40 5 -52 34 -81 28 -28 42 -34
76 -34 34 0 48 6 76 34 29 29 34 41 34 81 0 38 -5 52 -29 76 -25 25 -37 29
-81 29 -44 0 -56 -4 -81 -29z"/>
<path d="M1313 705 c-32 -23 -48 -79 -34 -125 14 -48 40 -70 89 -77 112 -15
176 120 91 191 -36 30 -111 36 -146 11z"/>
</g>
</svg>